<?xml version="1.0" standalone="no"?>
<!DOCTYPE svg PUBLIC "-//W3C//DTD SVG 20010904//EN"
 "http://www.w3.org/TR/2001/REC-SVG-20010904/DTD/svg10.dtd">
<svg version="1.0" xmlns="http://www.w3.org/2000/svg"
 width="512.000000pt" height="512.000000pt" viewBox="0 0 512.000000 512.000000"
 preserveAspectRatio="xMidYMid meet">
<metadata>
Created by potrace 1.14, written by Peter Selinger 2001-2017
</metadata>
<g transform="translate(0.000000,512.000000) scale(0.100000,-0.100000)"
fill="#000000" stroke="none">
<path d="M930 2905 l0 -645 620 0 620 0 0 35 0 35 -585 0 -585 0 0 575 0 575
1565 0 1565 0 0 -490 0 -490 30 0 30 0 0 525 0 525 -1630 0 -1630 0 0 -645z"/>
<path d="M2360 3203 c-19 -37 -27 -60 -20 -67 6 -6 4 -13 -7 -21 -22 -17 -8
-35 28 -35 28 0 29 -2 18 -22 -6 -13 -23 -35 -37 -50 -29 -31 -24 -63 8 -53
19 6 20 2 20 -99 0 -84 3 -106 14 -106 8 0 16 7 20 15 4 11 22 15 76 15 39 0
69 -4 66 -8 -2 -4 -1 -14 4 -22 23 -37 105 49 116 122 5 31 11 38 30 38 22 0
23 -4 26 -77 3 -75 4 -78 31 -87 45 -16 80 2 90 48 7 29 6 40 -4 47 -24 15
-29 10 -29 -26 0 -31 -3 -35 -25 -35 -24 0 -25 2 -25 65 l0 65 30 0 30 0 -2
163 -3 162 -107 3 -108 3 0 -166 c0 -159 1 -165 20 -165 17 0 19 -5 14 -27 -7
-31 -36 -77 -47 -75 -4 1 -25 2 -47 2 -33 0 -40 3 -40 19 0 15 8 21 32 23 46
4 49 28 4 28 -32 0 -36 3 -36 25 0 22 4 25 36 25 45 0 42 24 -4 28 -24 2 -32
8 -32 23 0 15 7 19 35 19 24 0 35 5 35 15 0 10 -10 15 -31 15 -26 0 -29 3 -24
20 5 15 2 20 -14 20 -11 0 -22 -9 -26 -20 -4 -14 -15 -20 -35 -20 -28 0 -29 1
-18 25 10 23 16 25 85 25 66 0 73 2 73 20 0 18 -7 20 -60 20 -60 0 -66 4 -54
34 4 12 20 16 55 16 42 0 49 3 49 20 0 18 -7 20 -81 20 -74 0 -80 1 -74 19 3
12 0 21 -9 24 -11 4 -24 -11 -46 -50z m420 -33 l0 -30 -70 0 -70 0 0 30 0 30
70 0 70 0 0 -30z m-350 -8 c0 -20 -28 -44 -48 -40 -21 3 -22 4 -7 26 15 21 55
31 55 14z m348 -89 c-3 -27 -5 -28 -70 -31 l-68 -3 0 31 0 30 71 0 70 0 -3
-27z m2 -93 l0 -30 -70 0 -70 0 0 30 0 30 70 0 70 0 0 -30z m-320 0 c0 -16 -7
-20 -30 -20 -18 0 -30 5 -30 13 0 20 10 27 37 27 16 0 23 -6 23 -20z m0 -75
c0 -20 -5 -25 -24 -25 -14 0 -28 5 -31 10 -12 19 4 40 30 40 20 0 25 -5 25
-25z m0 -75 c0 -16 -7 -20 -30 -20 -23 0 -30 4 -30 20 0 16 7 20 30 20 23 0
30 -4 30 -20z"/>
<path d="M3130 3150 l0 -110 -115 0 c-108 0 -115 -1 -115 -20 0 -18 7 -20 76
-20 l77 0 -7 -46 c-9 -72 -44 -125 -99 -154 -29 -15 -46 -31 -45 -40 5 -26 33
-22 84 12 54 37 90 92 99 153 12 75 12 75 65 75 l48 0 4 -120 c2 -94 6 -123
18 -130 8 -5 47 -10 87 -10 63 0 74 3 87 22 20 29 21 94 1 101 -10 4 -16 -5
-22 -36 l-9 -42 -57 -3 -57 -3 0 111 0 110 80 0 c73 0 80 2 80 20 0 18 -8 20
-117 22 l-118 3 -3 108 c-2 99 -4 107 -22 107 -19 0 -20 -7 -20 -110z"/>
<path d="M3289 3164 c-30 -62 -33 -74 -20 -79 18 -7 32 10 67 77 29 57 29 64
6 70 -14 4 -26 -11 -53 -68z"/>
<path d="M2963 3224 c-17 -8 48 -144 67 -141 22 4 16 49 -15 102 -27 45 -30
47 -52 39z"/>
<path d="M1835 3084 c-133 -253 -155 -296 -155 -300 0 -2 20 -4 45 -4 39 0 46
3 60 30 l16 30 99 0 99 0 16 -30 c14 -27 20 -30 64 -30 l49 0 -100 193 c-55
105 -106 203 -113 216 -12 23 -15 18 -80 -105z m98 -99 c15 -31 27 -58 27 -60
0 -3 -27 -5 -60 -5 -33 0 -60 2 -60 5 0 10 55 115 60 115 3 0 18 -25 33 -55z"/>
<path d="M2167 3203 c-4 -3 -7 -100 -7 -215 l0 -208 45 0 45 0 0 215 0 215
-38 0 c-21 0 -42 -3 -45 -7z"/>
<path d="M2550 2346 c0 -50 -4 -76 -12 -79 -7 -3 5 -5 27 -5 22 0 34 2 28 5
-7 2 -13 14 -13 26 1 21 2 20 21 -5 11 -16 29 -28 40 -28 17 0 16 3 -7 37
l-25 38 21 17 22 18 -21 0 c-12 0 -20 -4 -17 -9 3 -4 -3 -16 -14 -26 -20 -18
-20 -17 -20 33 0 40 -4 52 -15 52 -12 0 -15 -15 -15 -74z"/>
<path d="M2682 2404 c4 -21 22 -23 26 -1 2 10 -3 17 -13 17 -10 0 -15 -6 -13
-16z"/>
<path d="M2902 2404 c4 -21 22 -23 26 -1 2 10 -3 17 -13 17 -10 0 -15 -6 -13
-16z"/>
<path d="M3258 2355 c2 -42 -1 -71 -8 -80 -10 -13 -8 -15 16 -15 28 0 29 2 29
47 0 36 4 48 15 48 11 0 15 -12 15 -48 0 -41 3 -47 21 -47 17 0 20 5 17 33 -9
75 -12 79 -43 75 -27 -4 -30 -2 -30 24 0 20 -5 28 -17 28 -16 0 -18 -8 -15
-65z"/>
<path d="M3541 2390 c-15 -9 -17 -72 -5 -113 7 -21 56 -20 60 1 1 7 0 8 -3 2
-2 -5 -11 -10 -19 -10 -22 0 -19 87 4 93 15 4 15 5 0 6 -9 0 -18 8 -20 16 -2
10 -7 12 -17 5z"/>
<path d="M2675 2315 c0 -48 2 -55 20 -55 18 0 20 5 17 55 -3 43 -7 55 -20 55
-14 0 -17 -10 -17 -55z"/>
<path d="M2745 2314 c0 -48 2 -54 21 -54 17 0 20 5 16 29 -4 31 12 71 29 71 7
0 10 -19 7 -50 -3 -48 -2 -50 23 -50 25 0 26 2 19 43 -9 60 -14 65 -67 65
l-48 0 0 -54z"/>
<path d="M2897 2293 c1 -43 0 -72 -3 -65 -3 6 -12 12 -21 12 -20 0 -11 -24 11
-28 34 -7 46 17 46 89 0 59 -3 69 -17 69 -16 0 -18 -9 -16 -77z"/>
<path d="M2972 2358 c-7 -7 -12 -26 -12 -43 0 -34 15 -55 39 -55 12 0 12 3 3
12 -7 7 -12 26 -12 43 0 17 5 36 12 43 9 9 9 12 -3 12 -8 0 -20 -5 -27 -12z"/>
<path d="M3028 2358 c15 -15 16 -53 2 -79 -13 -23 2 -26 24 -3 28 28 13 94
-21 94 -13 0 -14 -3 -5 -12z"/>
<path d="M3143 2354 c-4 -11 4 -25 25 -43 18 -14 32 -29 32 -33 0 -15 -39 -8
-49 10 -9 15 -10 15 -11 -5 0 -19 5 -23 34 -23 59 0 72 45 19 69 -16 7 -23 17
-19 26 3 9 -1 15 -10 15 -8 0 -17 -7 -21 -16z"/>
<path d="M3205 2360 c3 -5 8 -10 11 -10 2 0 4 5 4 10 0 6 -5 10 -11 10 -5 0
-7 -4 -4 -10z"/>
<path d="M3402 2358 c-7 -7 -12 -26 -12 -43 0 -34 15 -55 39 -55 12 0 12 3 3
12 -7 7 -12 26 -12 43 0 17 5 36 12 43 9 9 9 12 -3 12 -8 0 -20 -5 -27 -12z"/>
<path d="M3458 2358 c15 -15 16 -53 2 -79 -13 -23 2 -26 24 -3 28 28 13 94
-21 94 -13 0 -14 -3 -5 -12z"/>
<path d="M3617 2363 c-12 -11 -8 -23 7 -23 8 0 16 7 20 15 5 15 -14 21 -27 8z"/>
<path d="M3667 2347 c4 -20 0 -25 -26 -30 -25 -5 -31 -12 -31 -31 0 -23 3 -24
56 -24 31 0 51 4 46 7 -6 3 -12 26 -14 51 -2 32 -8 46 -19 48 -12 2 -15 -3
-12 -21z m1 -54 c-5 -25 -28 -28 -28 -4 0 12 6 21 16 21 9 0 14 -7 12 -17z"/>
<path d="M3735 2314 l0 -54 35 1 c19 0 29 3 23 6 -8 2 -13 22 -13 44 0 37 2
39 25 33 18 -4 25 -2 25 9 0 11 -12 15 -47 15 l-48 0 0 -54z"/>
<path d="M3857 2352 c-22 -24 -21 -55 1 -75 26 -24 32 -21 23 11 -4 15 -4 39
0 55 8 31 -1 35 -24 9z"/>
<path d="M3908 2363 c7 -3 12 -23 12 -48 0 -25 -5 -46 -12 -49 -7 -3 -4 -5 7
-3 10 1 26 14 34 28 13 24 13 29 -2 53 -10 14 -25 26 -35 25 -10 0 -12 -3 -4
-6z"/>
</g>
</svg>
